<svg width="446" height="546" viewBox="0 0 446 546" fill="none" xmlns="http://www.w3.org/2000/svg">
<g opacity="0.07">
<mask id="path-1-inside-1_7_15661" fill="white">
<path d="M0 45.6842C0 20.4535 20.4535 0 45.6842 0H399.737C424.968 0 445.421 20.4535 445.421 45.6842V399.737C445.421 424.968 424.968 445.421 399.737 445.421H45.6842C20.4535 445.421 0 424.968 0 399.737V45.6842Z"/>
</mask>
<path d="M0 45.6842C0 20.4535 20.4535 0 45.6842 0H399.737C424.968 0 445.421 20.4535 445.421 45.6842V399.737C445.421 424.968 424.968 445.421 399.737 445.421H45.6842C20.4535 445.421 0 424.968 0 399.737V45.6842Z" stroke="black" stroke-width="229.895" mask="url(#path-1-inside-1_7_15661)"/>
<rect width="124.526" height="76.6316" transform="translate(320.895 469.368)" fill="black"/>
</g>
</svg>
