<svg width="25" height="31" viewBox="0 0 25 31" fill="none" xmlns="http://www.w3.org/2000/svg">
<mask id="path-1-inside-1_7_1558" fill="white">
<path d="M0 3.18782C0 1.82122 1.10785 0.713379 2.47445 0.713379H21.6514C23.018 0.713379 24.1258 1.82123 24.1258 3.18782V22.3648C24.1258 23.7314 23.018 24.8392 21.6514 24.8392H2.47444C1.10785 24.8392 0 23.7314 0 22.3648V3.18782Z"/>
</mask>
<path d="M0 3.18782C0 1.82122 1.10785 0.713379 2.47445 0.713379H21.6514C23.018 0.713379 24.1258 1.82123 24.1258 3.18782V22.3648C24.1258 23.7314 23.018 24.8392 21.6514 24.8392H2.47444C1.10785 24.8392 0 23.7314 0 22.3648V3.18782Z" stroke="black" stroke-width="12.4521" mask="url(#path-1-inside-1_7_1558)"/>
<rect width="6.74486" height="4.15068" transform="translate(17.3809 26.1362)" fill="black"/>
</svg>
