<svg width="524" height="531" viewBox="0 0 524 531" fill="none" xmlns="http://www.w3.org/2000/svg">
<path d="M260.734 530.362C404.733 530.362 521.467 523.053 521.467 514.037C521.467 505.021 404.733 497.712 260.734 497.712C116.734 497.712 0 505.021 0 514.037C0 523.053 116.734 530.362 260.734 530.362Z" fill="#F5F5F5"/>
<path d="M251.482 292.657H169.331C168.173 292.657 167.233 293.664 167.233 294.907V331.652C167.233 332.895 168.173 333.902 169.331 333.902H251.482C252.641 333.902 253.58 332.895 253.58 331.652V294.907C253.58 293.664 252.641 292.657 251.482 292.657Z" fill="#CCCCCC"/>
<path opacity="0.6" d="M251.482 292.657H169.331C168.173 292.657 167.233 293.664 167.233 294.907V331.652C167.233 332.895 168.173 333.902 169.331 333.902H251.482C252.641 333.902 253.58 332.895 253.58 331.652V294.907C253.58 293.664 252.641 292.657 251.482 292.657Z" fill="white"/>
<path opacity="0.1" d="M251.468 292.657H169.29C168.734 292.657 168.2 292.894 167.807 293.316C167.413 293.738 167.192 294.31 167.192 294.907V306.689L209.955 315.717C210.217 315.774 210.487 315.774 210.749 315.717L253.525 306.689V294.907C253.525 294.318 253.31 293.752 252.925 293.331C252.541 292.911 252.017 292.669 251.468 292.657Z" fill="black"/>
<path d="M253.27 277.572H228.177V273.058C228.173 271.193 227.481 269.405 226.251 268.086C225.021 266.767 223.354 266.024 221.614 266.021H199.197C197.458 266.024 195.791 266.767 194.561 268.086C193.331 269.405 192.638 271.193 192.635 273.058V277.572H167.555C167.006 277.572 166.479 277.806 166.091 278.222C165.703 278.639 165.484 279.204 165.484 279.793V302.016C165.487 302.529 165.654 303.025 165.958 303.422C166.262 303.819 166.683 304.091 167.152 304.194L210.009 313.236C210.272 313.279 210.54 313.279 210.802 313.236L253.66 304.194C254.13 304.091 254.553 303.82 254.859 303.423C255.165 303.027 255.335 302.53 255.341 302.016V279.793C255.341 279.204 255.122 278.639 254.734 278.222C254.346 277.806 253.819 277.572 253.27 277.572ZM197.624 273.058C197.627 272.61 197.794 272.182 198.088 271.864C198.382 271.546 198.78 271.364 199.197 271.356H221.614C222.032 271.364 222.43 271.546 222.724 271.864C223.018 272.182 223.184 272.61 223.188 273.058V277.572H197.637L197.624 273.058Z" fill="#CCCCCC"/>
<path opacity="0.6" d="M253.27 277.572H228.177V273.058C228.173 271.193 227.481 269.405 226.251 268.086C225.021 266.767 223.354 266.024 221.614 266.021H199.197C197.458 266.024 195.791 266.767 194.561 268.086C193.331 269.405 192.638 271.193 192.635 273.058V277.572H167.555C167.006 277.572 166.479 277.806 166.091 278.222C165.703 278.639 165.484 279.204 165.484 279.793V302.016C165.487 302.529 165.654 303.025 165.958 303.422C166.262 303.819 166.683 304.091 167.152 304.194L210.009 313.236C210.272 313.279 210.54 313.279 210.802 313.236L253.66 304.194C254.13 304.091 254.553 303.82 254.859 303.423C255.165 303.027 255.335 302.53 255.341 302.016V279.793C255.341 279.204 255.122 278.639 254.734 278.222C254.346 277.806 253.819 277.572 253.27 277.572ZM197.624 273.058C197.627 272.61 197.794 272.182 198.088 271.864C198.382 271.546 198.78 271.364 199.197 271.356H221.614C222.032 271.364 222.43 271.546 222.724 271.864C223.018 272.182 223.184 272.61 223.188 273.058V277.572H197.637L197.624 273.058Z" fill="white"/>
<path d="M214.837 307.165H205.989C204.89 307.165 203.999 308.121 203.999 309.299V315.299C203.999 316.477 204.89 317.433 205.989 317.433H214.837C215.936 317.433 216.827 316.477 216.827 315.299V309.299C216.827 308.121 215.936 307.165 214.837 307.165Z" fill="#CCCCCC"/>
<path opacity="0.3" d="M214.837 307.165H205.989C204.89 307.165 203.999 308.121 203.999 309.299V315.299C203.999 316.477 204.89 317.433 205.989 317.433H214.837C215.936 317.433 216.827 316.477 216.827 315.299V309.299C216.827 308.121 215.936 307.165 214.837 307.165Z" fill="white"/>
<path d="M251.482 27.3628H169.331C168.173 27.3628 167.233 28.37 167.233 29.6125V66.3579C167.233 67.6003 168.173 68.6076 169.331 68.6076H251.482C252.641 68.6076 253.58 67.6003 253.58 66.3579V29.6125C253.58 28.37 252.641 27.3628 251.482 27.3628Z" fill="#CCCCCC"/>
<path opacity="0.6" d="M251.482 27.3628H169.331C168.173 27.3628 167.233 28.37 167.233 29.6125V66.3579C167.233 67.6003 168.173 68.6076 169.331 68.6076H251.482C252.641 68.6076 253.58 67.6003 253.58 66.3579V29.6125C253.58 28.37 252.641 27.3628 251.482 27.3628Z" fill="white"/>
<path opacity="0.1" d="M251.468 27.3628H169.29C168.734 27.3628 168.2 27.5998 167.807 28.0217C167.413 28.4436 167.192 29.0159 167.192 29.6125V41.3947L209.955 50.4224C210.217 50.4799 210.487 50.4799 210.749 50.4224L253.525 41.3947V29.6125C253.525 29.0233 253.31 28.4575 252.925 28.0368C252.541 27.6161 252.017 27.3741 251.468 27.3628Z" fill="black"/>
<path d="M253.27 12.279H228.177V7.76511C228.173 5.8998 227.481 4.11198 226.251 2.79301C225.021 1.47403 223.354 0.73135 221.614 0.727539H199.197C197.458 0.73135 195.791 1.47403 194.561 2.79301C193.331 4.11198 192.638 5.8998 192.635 7.76511V12.279H167.555C167.006 12.279 166.479 12.5129 166.091 12.9294C165.703 13.3459 165.484 13.9108 165.484 14.4998V36.723C165.485 37.2368 165.651 37.7346 165.955 38.1317C166.259 38.5288 166.682 38.8005 167.152 38.9006L210.009 47.885C210.271 47.9425 210.541 47.9425 210.802 47.885L253.66 38.8429C254.125 38.7483 254.546 38.4868 254.853 38.1016C255.161 37.7163 255.338 37.2301 255.354 36.723V14.4998C255.354 14.207 255.3 13.917 255.195 13.6466C255.09 13.3762 254.936 13.1307 254.743 12.9243C254.549 12.7179 254.319 12.5546 254.066 12.4439C253.813 12.3331 253.543 12.2771 253.27 12.279ZM197.624 7.76511C197.624 7.31628 197.789 6.88561 198.084 6.56689C198.379 6.24817 198.779 6.06721 199.197 6.0634H221.614C222.03 6.06717 222.429 6.24615 222.723 6.56176C223.017 6.87738 223.184 7.30436 223.188 7.75069V12.2645H197.637L197.624 7.76511Z" fill="#CCCCCC"/>
<path opacity="0.6" d="M253.27 12.279H228.177V7.76511C228.173 5.8998 227.481 4.11198 226.251 2.79301C225.021 1.47403 223.354 0.73135 221.614 0.727539H199.197C197.458 0.73135 195.791 1.47403 194.561 2.79301C193.331 4.11198 192.638 5.8998 192.635 7.76511V12.279H167.555C167.006 12.279 166.479 12.5129 166.091 12.9294C165.703 13.3459 165.484 13.9108 165.484 14.4998V36.723C165.485 37.2368 165.651 37.7346 165.955 38.1317C166.259 38.5288 166.682 38.8005 167.152 38.9006L210.009 47.885C210.271 47.9425 210.541 47.9425 210.802 47.885L253.66 38.8429C254.125 38.7483 254.546 38.4868 254.853 38.1016C255.161 37.7163 255.338 37.2301 255.354 36.723V14.4998C255.354 14.207 255.3 13.917 255.195 13.6466C255.09 13.3762 254.936 13.1307 254.743 12.9243C254.549 12.7179 254.319 12.5546 254.066 12.4439C253.813 12.3331 253.543 12.2771 253.27 12.279ZM197.624 7.76511C197.624 7.31628 197.789 6.88561 198.084 6.56689C198.379 6.24817 198.779 6.06721 199.197 6.0634H221.614C222.03 6.06717 222.429 6.24615 222.723 6.56176C223.017 6.87738 223.184 7.30436 223.188 7.75069V12.2645H197.637L197.624 7.76511Z" fill="white"/>
<path d="M214.837 41.8862H205.989C204.89 41.8862 203.999 42.8418 203.999 44.0206V50.0198C203.999 51.1986 204.89 52.1542 205.989 52.1542H214.837C215.936 52.1542 216.827 51.1986 216.827 50.0198V44.0206C216.827 42.8418 215.936 41.8862 214.837 41.8862Z" fill="#CCCCCC"/>
<path opacity="0.3" d="M214.837 41.8862H205.989C204.89 41.8862 203.999 42.8418 203.999 44.0206V50.0198C203.999 51.1986 204.89 52.1542 205.989 52.1542H214.837C215.936 52.1542 216.827 51.1986 216.827 50.0198V44.0206C216.827 42.8418 215.936 41.8862 214.837 41.8862Z" fill="white"/>
<path d="M123.515 292.657H41.3644C40.2058 292.657 39.2666 293.664 39.2666 294.907V331.652C39.2666 332.895 40.2058 333.902 41.3644 333.902H123.515C124.674 333.902 125.613 332.895 125.613 331.652V294.907C125.613 293.664 124.674 292.657 123.515 292.657Z" fill="#CCCCCC"/>
<path opacity="0.6" d="M123.515 292.657H41.3644C40.2058 292.657 39.2666 293.664 39.2666 294.907V331.652C39.2666 332.895 40.2058 333.902 41.3644 333.902H123.515C124.674 333.902 125.613 332.895 125.613 331.652V294.907C125.613 293.664 124.674 292.657 123.515 292.657Z" fill="white"/>
<path opacity="0.1" d="M123.569 292.657H41.3644C40.808 292.657 40.2745 292.894 39.881 293.316C39.4876 293.738 39.2666 294.31 39.2666 294.907V306.689L82.0297 315.717C82.2959 315.774 82.5702 315.774 82.8365 315.717L125.613 306.689V294.907C125.613 294.32 125.4 293.756 125.018 293.336C124.636 292.916 124.116 292.672 123.569 292.657Z" fill="black"/>
<path d="M125.29 277.572H100.197V273.058C100.193 271.193 99.5006 269.405 98.2706 268.086C97.0407 266.767 95.3736 266.024 93.6343 266.021H71.2307C69.4914 266.024 67.8243 266.767 66.5944 268.086C65.3644 269.405 64.6719 271.193 64.6683 273.058V277.572H39.5753C39.0261 277.572 38.4993 277.806 38.111 278.222C37.7226 278.639 37.5044 279.204 37.5044 279.793V302.016C37.5071 302.529 37.6743 303.025 37.9779 303.422C38.2815 303.819 38.7031 304.091 39.1719 304.194L82.0291 313.236C82.2965 313.279 82.5685 313.279 82.8359 313.236L125.693 304.194C126.162 304.091 126.583 303.819 126.887 303.422C127.191 303.025 127.358 302.529 127.361 302.016V279.793C127.361 279.204 127.142 278.639 126.754 278.222C126.366 277.806 125.839 277.572 125.29 277.572ZM69.6439 273.058C69.6508 272.609 69.8202 272.181 70.1163 271.863C70.4124 271.545 70.812 271.364 71.2307 271.356H93.6343C94.053 271.364 94.4526 271.545 94.7487 271.863C95.0448 272.181 95.2142 272.609 95.2211 273.058V277.572H69.6708L69.6439 273.058Z" fill="#CCCCCC"/>
<path opacity="0.6" d="M125.29 277.572H100.197V273.058C100.193 271.193 99.5006 269.405 98.2706 268.086C97.0407 266.767 95.3736 266.024 93.6343 266.021H71.2307C69.4914 266.024 67.8243 266.767 66.5944 268.086C65.3644 269.405 64.6719 271.193 64.6683 273.058V277.572H39.5753C39.0261 277.572 38.4993 277.806 38.111 278.222C37.7226 278.639 37.5044 279.204 37.5044 279.793V302.016C37.5071 302.529 37.6743 303.025 37.9779 303.422C38.2815 303.819 38.7031 304.091 39.1719 304.194L82.0291 313.236C82.2965 313.279 82.5685 313.279 82.8359 313.236L125.693 304.194C126.162 304.091 126.583 303.819 126.887 303.422C127.191 303.025 127.358 302.529 127.361 302.016V279.793C127.361 279.204 127.142 278.639 126.754 278.222C126.366 277.806 125.839 277.572 125.29 277.572ZM69.6439 273.058C69.6508 272.609 69.8202 272.181 70.1163 271.863C70.4124 271.545 70.812 271.364 71.2307 271.356H93.6343C94.053 271.364 94.4526 271.545 94.7487 271.863C95.0448 272.181 95.2142 272.609 95.2211 273.058V277.572H69.6708L69.6439 273.058Z" fill="white"/>
<path d="M86.8577 307.165H78.0093C76.9101 307.165 76.019 308.121 76.019 309.299V315.299C76.019 316.477 76.9101 317.433 78.0093 317.433H86.8577C87.9569 317.433 88.848 316.477 88.848 315.299V309.299C88.848 308.121 87.9569 307.165 86.8577 307.165Z" fill="#CCCCCC"/>
<path opacity="0.3" d="M86.8577 307.165H78.0093C76.9101 307.165 76.019 308.121 76.019 309.299V315.299C76.019 316.477 76.9101 317.433 78.0093 317.433H86.8577C87.9569 317.433 88.848 316.477 88.848 315.299V309.299C88.848 308.121 87.9569 307.165 86.8577 307.165Z" fill="white"/>
<path d="M123.515 27.3628H41.3644C40.2058 27.3628 39.2666 28.37 39.2666 29.6125V66.3579C39.2666 67.6003 40.2058 68.6076 41.3644 68.6076H123.515C124.674 68.6076 125.613 67.6003 125.613 66.3579V29.6125C125.613 28.37 124.674 27.3628 123.515 27.3628Z" fill="#CCCCCC"/>
<path opacity="0.6" d="M123.515 27.3628H41.3644C40.2058 27.3628 39.2666 28.37 39.2666 29.6125V66.3579C39.2666 67.6003 40.2058 68.6076 41.3644 68.6076H123.515C124.674 68.6076 125.613 67.6003 125.613 66.3579V29.6125C125.613 28.37 124.674 27.3628 123.515 27.3628Z" fill="white"/>
<path opacity="0.1" d="M123.569 27.3628H41.3644C40.808 27.3628 40.2745 27.5998 39.881 28.0217C39.4876 28.4436 39.2666 29.0159 39.2666 29.6125V41.3947L82.0297 50.4224C82.2959 50.4803 82.5703 50.4803 82.8365 50.4224L125.613 41.3947V29.6125C125.613 29.0257 125.4 28.4621 125.018 28.0418C124.636 27.6215 124.116 27.3778 123.569 27.3628Z" fill="black"/>
<path d="M125.29 12.2799H100.197V7.76609C100.193 5.90078 99.5006 4.11296 98.2706 2.79399C97.0407 1.47501 95.3736 0.732326 93.6343 0.728516H71.2307C69.4914 0.732326 67.8243 1.47501 66.5944 2.79399C65.3644 4.11296 64.6719 5.90078 64.6683 7.76609V12.2799H39.5753C39.0261 12.2799 38.4993 12.5139 38.111 12.9304C37.7226 13.3469 37.5044 13.9118 37.5044 14.5008V36.724C37.5045 37.2378 37.6708 37.7356 37.9749 38.1327C38.2789 38.5298 38.702 38.8015 39.1719 38.9016L82.0291 47.886C82.2953 47.9439 82.5697 47.9439 82.8359 47.886L125.693 38.8439C126.163 38.7438 126.586 38.4721 126.89 38.075C127.194 37.6779 127.36 37.1801 127.361 36.6663V14.5008C127.361 13.9118 127.142 13.3469 126.754 12.9304C126.366 12.5139 125.839 12.2799 125.29 12.2799ZM69.6439 7.76609C69.6474 7.31593 69.8158 6.88529 70.1126 6.56697C70.4094 6.24865 70.811 6.06815 71.2307 6.06438H93.6343C94.0517 6.06808 94.4513 6.24659 94.7478 6.56182C95.0442 6.87704 95.2141 7.30402 95.2211 7.75167V12.2655H69.6708L69.6439 7.76609Z" fill="#CCCCCC"/>
<path opacity="0.6" d="M125.29 12.2799H100.197V7.76609C100.193 5.90078 99.5006 4.11296 98.2706 2.79399C97.0407 1.47501 95.3736 0.732326 93.6343 0.728516H71.2307C69.4914 0.732326 67.8243 1.47501 66.5944 2.79399C65.3644 4.11296 64.6719 5.90078 64.6683 7.76609V12.2799H39.5753C39.0261 12.2799 38.4993 12.5139 38.111 12.9304C37.7226 13.3469 37.5044 13.9118 37.5044 14.5008V36.724C37.5045 37.2378 37.6708 37.7356 37.9749 38.1327C38.2789 38.5298 38.702 38.8015 39.1719 38.9016L82.0291 47.886C82.2953 47.9439 82.5697 47.9439 82.8359 47.886L125.693 38.8439C126.163 38.7438 126.586 38.4721 126.89 38.075C127.194 37.6779 127.36 37.1801 127.361 36.6663V14.5008C127.361 13.9118 127.142 13.3469 126.754 12.9304C126.366 12.5139 125.839 12.2799 125.29 12.2799ZM69.6439 7.76609C69.6474 7.31593 69.8158 6.88529 70.1126 6.56697C70.4094 6.24865 70.811 6.06815 71.2307 6.06438H93.6343C94.0517 6.06808 94.4513 6.24659 94.7478 6.56182C95.0442 6.87704 95.2141 7.30402 95.2211 7.75167V12.2655H69.6708L69.6439 7.76609Z" fill="white"/>
<path d="M86.8577 41.8862H78.0093C76.9101 41.8862 76.019 42.8418 76.019 44.0206V50.0198C76.019 51.1986 76.9101 52.1542 78.0093 52.1542H86.8577C87.9569 52.1542 88.848 51.1986 88.848 50.0198V44.0206C88.848 42.8418 87.9569 41.8862 86.8577 41.8862Z" fill="#CCCCCC"/>
<path opacity="0.3" d="M86.8577 41.8862H78.0093C76.9101 41.8862 76.019 42.8418 76.019 44.0206V50.0198C76.019 51.1986 76.9101 52.1542 78.0093 52.1542H86.8577C87.9569 52.1542 88.848 51.1986 88.848 50.0198V44.0206C88.848 42.8418 87.9569 41.8862 86.8577 41.8862Z" fill="white"/>
<path d="M112.811 201.255H41.3642C40.8042 201.255 40.2672 201.016 39.8713 200.592C39.4754 200.167 39.2529 199.591 39.2529 198.991V162.26C39.255 161.957 39.3145 161.658 39.4277 161.38C39.4824 161.251 39.5453 161.126 39.616 161.005C39.6909 160.882 39.7814 160.77 39.885 160.674C40.2767 160.251 40.8087 160.013 41.3642 160.01H108.992C108.429 165.043 108.245 170.117 108.44 175.181C108.44 176.003 108.44 176.825 108.561 177.633C108.655 179.147 108.763 180.676 108.924 182.19C109.617 188.669 110.919 195.057 112.811 201.255Z" fill="#CCCCCC"/>
<path opacity="0.6" d="M112.811 201.255H41.3642C40.8042 201.255 40.2672 201.016 39.8713 200.592C39.4754 200.167 39.2529 199.591 39.2529 198.991V162.26C39.255 161.957 39.3145 161.658 39.4277 161.38C39.4824 161.251 39.5453 161.126 39.616 161.005C39.6909 160.882 39.7814 160.77 39.885 160.674C40.2767 160.251 40.8087 160.013 41.3642 160.01H108.992C108.429 165.043 108.245 170.117 108.44 175.181C108.44 176.003 108.44 176.825 108.561 177.633C108.655 179.147 108.763 180.676 108.924 182.19C109.617 188.669 110.919 195.057 112.811 201.255Z" fill="white"/>
<path opacity="0.1" d="M108.992 160.01C108.429 165.043 108.245 170.117 108.441 175.181C108.441 176.003 108.441 176.825 108.562 177.633L88.8476 181.786L82.8231 183.055C82.5629 183.127 82.2899 183.127 82.0297 183.055L76.0186 181.801L39.2666 174.042V162.246C39.2708 161.949 39.3255 161.656 39.428 161.38C39.4826 161.251 39.5455 161.126 39.6162 161.005C39.6911 160.882 39.7816 160.77 39.8852 160.674C40.2769 160.251 40.8089 160.013 41.3644 160.01H108.992Z" fill="black"/>
<path d="M111.802 144.926H100.21V140.412C100.203 138.545 99.5075 136.758 98.2754 135.439C97.0434 134.121 95.3749 133.378 93.6343 133.375H71.2307C69.4903 133.375 67.8211 134.116 66.5904 135.436C65.3597 136.756 64.6683 138.546 64.6683 140.412V144.926H39.5753C39.3034 144.926 39.0341 144.983 38.7828 145.095C38.5316 145.207 38.3033 145.37 38.111 145.576C37.9187 145.783 37.7661 146.027 37.662 146.297C37.558 146.566 37.5044 146.855 37.5044 147.147V169.356C37.5046 169.873 37.6723 170.375 37.9789 170.774C38.2854 171.174 38.7118 171.447 39.1853 171.548H39.266L76.018 179.321L82.0291 180.575C82.2908 180.633 82.5607 180.633 82.8225 180.575L88.847 179.306L108.44 175.167C108.244 170.103 108.429 165.029 108.991 159.996C109.55 154.9 110.49 149.86 111.802 144.926ZM69.6439 140.412C69.6509 139.964 69.8208 139.537 70.1172 139.222C70.4137 138.907 70.8133 138.729 71.2307 138.725H93.6343C94.0505 138.729 94.4486 138.908 94.7429 139.223C95.0372 139.539 95.2041 139.966 95.2076 140.412V144.926H69.6574L69.6439 140.412Z" fill="#CCCCCC"/>
<path opacity="0.6" d="M111.802 144.926H100.21V140.412C100.203 138.545 99.5075 136.758 98.2754 135.439C97.0434 134.121 95.3749 133.378 93.6343 133.375H71.2307C69.4903 133.375 67.8211 134.116 66.5904 135.436C65.3597 136.756 64.6683 138.546 64.6683 140.412V144.926H39.5753C39.3034 144.926 39.0341 144.983 38.7828 145.095C38.5316 145.207 38.3033 145.37 38.111 145.576C37.9187 145.783 37.7661 146.027 37.662 146.297C37.558 146.566 37.5044 146.855 37.5044 147.147V169.356C37.5046 169.873 37.6723 170.375 37.9789 170.774C38.2854 171.174 38.7118 171.447 39.1853 171.548H39.266L76.018 179.321L82.0291 180.575C82.2908 180.633 82.5607 180.633 82.8225 180.575L88.847 179.306L108.44 175.167C108.244 170.103 108.429 165.029 108.991 159.996C109.55 154.9 110.49 149.86 111.802 144.926ZM69.6439 140.412C69.6509 139.964 69.8208 139.537 70.1172 139.222C70.4137 138.907 70.8133 138.729 71.2307 138.725H93.6343C94.0505 138.729 94.4486 138.908 94.7429 139.223C95.0372 139.539 95.2041 139.966 95.2076 140.412V144.926H69.6574L69.6439 140.412Z" fill="white"/>
<path d="M86.8577 174.518H78.0093C76.9101 174.518 76.019 175.474 76.019 176.652V182.652C76.019 183.83 76.9101 184.786 78.0093 184.786H86.8577C87.9569 184.786 88.848 183.83 88.848 182.652V176.652C88.848 175.474 87.9569 174.518 86.8577 174.518Z" fill="#CCCCCC"/>
<path opacity="0.3" d="M86.8577 174.518H78.0093C76.9101 174.518 76.019 175.474 76.019 176.652V182.652C76.019 183.83 76.9101 184.786 78.0093 184.786H86.8577C87.9569 184.786 88.848 183.83 88.848 182.652V176.652C88.848 175.474 87.9569 174.518 86.8577 174.518Z" fill="white"/>
<path d="M297.297 333.888H379.448C380.607 333.888 381.546 332.881 381.546 331.638V294.893C381.546 293.651 380.607 292.643 379.448 292.643H297.297C296.139 292.643 295.199 293.651 295.199 294.893V331.638C295.199 332.881 296.139 333.888 297.297 333.888Z" fill="#CCCCCC"/>
<path opacity="0.6" d="M297.297 333.888H379.448C380.607 333.888 381.546 332.881 381.546 331.638V294.893C381.546 293.651 380.607 292.643 379.448 292.643H297.297C296.139 292.643 295.199 293.651 295.199 294.893V331.638C295.199 332.881 296.139 333.888 297.297 333.888Z" fill="white"/>
<path opacity="0.1" d="M297.31 292.657H379.448C380.004 292.657 380.538 292.894 380.931 293.315C381.324 293.737 381.545 294.31 381.545 294.906V306.688L338.729 315.716C338.467 315.774 338.197 315.774 337.935 315.716L295.159 306.688V294.906C295.159 294.606 295.215 294.309 295.323 294.032C295.432 293.755 295.591 293.504 295.792 293.295C295.993 293.085 296.23 292.92 296.491 292.811C296.752 292.701 297.03 292.649 297.31 292.657Z" fill="black"/>
<path d="M295.521 277.572H320.614V273.058C320.618 271.193 321.31 269.405 322.54 268.086C323.77 266.767 325.437 266.024 327.177 266.021H349.594C351.333 266.024 353 266.767 354.23 268.086C355.46 269.405 356.152 271.193 356.156 273.058V277.572H381.236C381.508 277.572 381.777 277.629 382.028 277.741C382.279 277.853 382.508 278.016 382.7 278.222C382.892 278.429 383.045 278.673 383.149 278.943C383.253 279.212 383.306 279.501 383.306 279.793V302.016C383.304 302.529 383.137 303.025 382.833 303.422C382.529 303.819 382.108 304.091 381.639 304.194L338.728 313.236C338.461 313.279 338.189 313.279 337.921 313.236L295.064 304.194C294.595 304.091 294.174 303.819 293.87 303.422C293.566 303.025 293.399 302.529 293.396 302.016V279.793C293.396 279.496 293.452 279.203 293.559 278.929C293.666 278.656 293.824 278.409 294.022 278.202C294.22 277.995 294.455 277.832 294.712 277.724C294.97 277.616 295.245 277.564 295.521 277.572ZM351.167 273.058C351.164 272.61 350.997 272.182 350.703 271.864C350.409 271.546 350.011 271.364 349.594 271.356H327.177C326.758 271.364 326.358 271.545 326.062 271.863C325.766 272.181 325.597 272.609 325.59 273.058V277.572H351.14L351.167 273.058Z" fill="#CCCCCC"/>
<path opacity="0.6" d="M295.521 277.572H320.614V273.058C320.618 271.193 321.31 269.405 322.54 268.086C323.77 266.767 325.437 266.024 327.177 266.021H349.594C351.333 266.024 353 266.767 354.23 268.086C355.46 269.405 356.152 271.193 356.156 273.058V277.572H381.236C381.508 277.572 381.777 277.629 382.028 277.741C382.279 277.853 382.508 278.016 382.7 278.222C382.892 278.429 383.045 278.673 383.149 278.943C383.253 279.212 383.306 279.501 383.306 279.793V302.016C383.304 302.529 383.137 303.025 382.833 303.422C382.529 303.819 382.108 304.091 381.639 304.194L338.728 313.236C338.461 313.279 338.189 313.279 337.921 313.236L295.064 304.194C294.595 304.091 294.174 303.819 293.87 303.422C293.566 303.025 293.399 302.529 293.396 302.016V279.793C293.396 279.496 293.452 279.203 293.559 278.929C293.666 278.656 293.824 278.409 294.022 278.202C294.22 277.995 294.455 277.832 294.712 277.724C294.97 277.616 295.245 277.564 295.521 277.572ZM351.167 273.058C351.164 272.61 350.997 272.182 350.703 271.864C350.409 271.546 350.011 271.364 349.594 271.356H327.177C326.758 271.364 326.358 271.545 326.062 271.863C325.766 272.181 325.597 272.609 325.59 273.058V277.572H351.14L351.167 273.058Z" fill="white"/>
<path d="M333.955 317.433H342.803C343.902 317.433 344.793 316.477 344.793 315.298V309.299C344.793 308.12 343.902 307.165 342.803 307.165H333.955C332.856 307.165 331.965 308.12 331.965 309.299V315.298C331.965 316.477 332.856 317.433 333.955 317.433Z" fill="#CCCCCC"/>
<path opacity="0.3" d="M333.955 317.433H342.803C343.902 317.433 344.793 316.477 344.793 315.298V309.299C344.793 308.12 343.902 307.165 342.803 307.165H333.955C332.856 307.165 331.965 308.12 331.965 309.299V315.298C331.965 316.477 332.856 317.433 333.955 317.433Z" fill="white"/>
<path d="M297.297 68.5947L379.448 68.5947C380.607 68.5947 381.546 67.5875 381.546 66.345V29.5997C381.546 28.3572 380.607 27.3499 379.448 27.3499L297.297 27.3499C296.139 27.3499 295.199 28.3572 295.199 29.5997V66.345C295.199 67.5875 296.139 68.5947 297.297 68.5947Z" fill="#CCCCCC"/>
<path opacity="0.6" d="M297.297 68.5947L379.448 68.5947C380.607 68.5947 381.546 67.5875 381.546 66.345V29.5997C381.546 28.3572 380.607 27.3499 379.448 27.3499L297.297 27.3499C296.139 27.3499 295.199 28.3572 295.199 29.5997V66.345C295.199 67.5875 296.139 68.5947 297.297 68.5947Z" fill="white"/>
<path opacity="0.1" d="M297.31 27.3628H379.448C380.004 27.3628 380.538 27.5998 380.931 28.0217C381.324 28.4436 381.545 29.0159 381.545 29.6125V41.3947L338.729 50.4224C338.467 50.4799 338.197 50.4799 337.935 50.4224L295.212 41.3947V29.6125C295.212 29.0159 295.433 28.4436 295.827 28.0217C296.22 27.5998 296.754 27.3628 297.31 27.3628Z" fill="black"/>
<path d="M295.521 12.2791H320.614V7.76525C320.618 5.89994 321.31 4.11212 322.54 2.79314C323.77 1.47417 325.437 0.731483 327.177 0.727672H349.594C350.459 0.721974 351.318 0.899698 352.119 1.25064C352.921 1.60158 353.65 2.11883 354.265 2.77271C354.879 3.42659 355.368 4.20422 355.702 5.06097C356.035 5.91772 356.208 6.83673 356.21 7.76525V12.2791H381.289C381.839 12.2791 382.365 12.5131 382.754 12.9296C383.142 13.3461 383.36 13.911 383.36 14.5V36.7231C383.36 37.2369 383.194 37.7348 382.89 38.1318C382.586 38.5289 382.163 38.8006 381.693 38.9007L338.728 47.8852C338.462 47.9431 338.187 47.9431 337.921 47.8852L295.064 38.8431C294.594 38.743 294.171 38.4712 293.867 38.0742C293.563 37.6771 293.397 37.1792 293.396 36.6654V14.5C293.396 14.2034 293.452 13.9098 293.559 13.6365C293.666 13.3633 293.824 13.1158 294.022 12.9088C294.22 12.7018 294.455 12.5395 294.712 12.4313C294.97 12.3231 295.245 12.2714 295.521 12.2791ZM351.167 7.76525C351.167 7.31641 351.002 6.88575 350.707 6.56702C350.412 6.2483 350.012 6.06734 349.594 6.06354H327.177C326.759 6.06724 326.36 6.24575 326.063 6.56097C325.767 6.8762 325.597 7.30318 325.59 7.75082V12.2647H351.14L351.167 7.76525Z" fill="#CCCCCC"/>
<path opacity="0.6" d="M295.521 12.2791H320.614V7.76525C320.618 5.89994 321.31 4.11212 322.54 2.79314C323.77 1.47417 325.437 0.731483 327.177 0.727672H349.594C350.459 0.721974 351.318 0.899698 352.119 1.25064C352.921 1.60158 353.65 2.11883 354.265 2.77271C354.879 3.42659 355.368 4.20422 355.702 5.06097C356.035 5.91772 356.208 6.83673 356.21 7.76525V12.2791H381.289C381.839 12.2791 382.365 12.5131 382.754 12.9296C383.142 13.3461 383.36 13.911 383.36 14.5V36.7231C383.36 37.2369 383.194 37.7348 382.89 38.1318C382.586 38.5289 382.163 38.8006 381.693 38.9007L338.728 47.8852C338.462 47.9431 338.187 47.9431 337.921 47.8852L295.064 38.8431C294.594 38.743 294.171 38.4712 293.867 38.0742C293.563 37.6771 293.397 37.1792 293.396 36.6654V14.5C293.396 14.2034 293.452 13.9098 293.559 13.6365C293.666 13.3633 293.824 13.1158 294.022 12.9088C294.22 12.7018 294.455 12.5395 294.712 12.4313C294.97 12.3231 295.245 12.2714 295.521 12.2791ZM351.167 7.76525C351.167 7.31641 351.002 6.88575 350.707 6.56702C350.412 6.2483 350.012 6.06734 349.594 6.06354H327.177C326.759 6.06724 326.36 6.24575 326.063 6.56097C325.767 6.8762 325.597 7.30318 325.59 7.75082V12.2647H351.14L351.167 7.76525Z" fill="white"/>
<path d="M333.955 52.1392H342.803C343.902 52.1392 344.793 51.1836 344.793 50.0048V44.0056C344.793 42.8268 343.902 41.8712 342.803 41.8712H333.955C332.856 41.8712 331.965 42.8268 331.965 44.0056V50.0048C331.965 51.1836 332.856 52.1392 333.955 52.1392Z" fill="#CCCCCC"/>
<path opacity="0.3" d="M333.955 52.1392H342.803C343.902 52.1392 344.793 51.1836 344.793 50.0048V44.0056C344.793 42.8268 343.902 41.8712 342.803 41.8712H333.955C332.856 41.8712 331.965 42.8268 331.965 44.0056V50.0048C331.965 51.1836 332.856 52.1392 333.955 52.1392Z" fill="white"/>
<path d="M308.055 201.255H379.461C380.019 201.251 380.553 201.011 380.946 200.587C381.339 200.163 381.559 199.589 381.559 198.991V162.26C381.557 161.957 381.498 161.658 381.384 161.38C381.335 161.248 381.272 161.122 381.196 161.005C381.121 160.882 381.031 160.77 380.927 160.674C380.734 160.463 380.504 160.296 380.25 160.182C379.996 160.068 379.723 160.01 379.448 160.01H311.834C312.397 165.043 312.581 170.117 312.385 175.181C312.385 176.003 312.385 176.825 312.264 177.633C312.184 179.147 312.063 180.676 311.901 182.19C311.222 188.668 309.934 195.055 308.055 201.255Z" fill="#CCCCCC"/>
<path opacity="0.6" d="M308.055 201.255H379.461C380.019 201.251 380.553 201.011 380.946 200.587C381.339 200.163 381.559 199.589 381.559 198.991V162.26C381.557 161.957 381.498 161.658 381.384 161.38C381.335 161.248 381.272 161.122 381.196 161.005C381.121 160.882 381.031 160.77 380.927 160.674C380.734 160.463 380.504 160.296 380.25 160.182C379.996 160.068 379.723 160.01 379.448 160.01H311.834C312.397 165.043 312.581 170.117 312.385 175.181C312.385 176.003 312.385 176.825 312.264 177.633C312.184 179.147 312.063 180.676 311.901 182.19C311.222 188.668 309.934 195.055 308.055 201.255Z" fill="white"/>
<path opacity="0.1" d="M311.834 160.01C312.397 165.043 312.581 170.117 312.385 175.181C312.385 176.003 312.385 176.825 312.264 177.633L332.005 181.786L338.03 183.055C338.29 183.127 338.563 183.127 338.823 183.055L344.834 181.801L381.586 174.042V162.246C381.582 161.949 381.527 161.656 381.425 161.38C381.376 161.248 381.312 161.122 381.237 161.005C381.162 160.882 381.071 160.77 380.968 160.674C380.775 160.463 380.544 160.296 380.29 160.182C380.036 160.068 379.764 160.01 379.488 160.01H311.834Z" fill="black"/>
<path d="M309.01 144.926H320.615V140.412C320.619 138.547 321.311 136.759 322.541 135.44C323.771 134.121 325.438 133.378 327.177 133.375H349.581C351.323 133.375 352.993 134.116 354.226 135.435C355.459 136.754 356.153 138.544 356.157 140.412V144.926H381.236C381.786 144.926 382.312 145.16 382.701 145.576C383.089 145.993 383.307 146.558 383.307 147.147V169.356C383.308 169.871 383.142 170.371 382.838 170.77C382.534 171.17 382.111 171.444 381.64 171.548H381.546L344.794 179.321L338.729 180.561C338.467 180.618 338.197 180.618 337.935 180.561L331.911 179.292L312.318 175.153C312.699 164.931 311.565 154.709 308.956 144.868L309.01 144.926ZM351.168 140.412C351.161 139.964 350.991 139.537 350.694 139.222C350.398 138.907 349.998 138.729 349.581 138.725H327.177C326.761 138.729 326.363 138.908 326.069 139.223C325.774 139.539 325.608 139.966 325.604 140.412V144.926H351.154L351.168 140.412Z" fill="#CCCCCC"/>
<path opacity="0.6" d="M309.01 144.926H320.615V140.412C320.619 138.547 321.311 136.759 322.541 135.44C323.771 134.121 325.438 133.378 327.177 133.375H349.581C351.323 133.375 352.993 134.116 354.226 135.435C355.459 136.754 356.153 138.544 356.157 140.412V144.926H381.236C381.786 144.926 382.312 145.16 382.701 145.576C383.089 145.993 383.307 146.558 383.307 147.147V169.356C383.308 169.871 383.142 170.371 382.838 170.77C382.534 171.17 382.111 171.444 381.64 171.548H381.546L344.794 179.321L338.729 180.561C338.467 180.618 338.197 180.618 337.935 180.561L331.911 179.292L312.318 175.153C312.699 164.931 311.565 154.709 308.956 144.868L309.01 144.926ZM351.168 140.412C351.161 139.964 350.991 139.537 350.694 139.222C350.398 138.907 349.998 138.729 349.581 138.725H327.177C326.761 138.729 326.363 138.908 326.069 139.223C325.774 139.539 325.608 139.966 325.604 140.412V144.926H351.154L351.168 140.412Z" fill="white"/>
<path d="M333.955 184.801H342.803C343.902 184.801 344.793 183.845 344.793 182.666V176.667C344.793 175.488 343.902 174.533 342.803 174.533H333.955C332.856 174.533 331.965 175.488 331.965 176.667V182.666C331.965 183.845 332.856 184.801 333.955 184.801Z" fill="#CCCCCC"/>
<path opacity="0.3" d="M333.955 184.801H342.803C343.902 184.801 344.793 183.845 344.793 182.666V176.667C344.793 175.488 343.902 174.533 342.803 174.533H333.955C332.856 174.533 331.965 175.488 331.965 176.667V182.666C331.965 183.845 332.856 184.801 333.955 184.801Z" fill="white"/>
<path d="M273.777 151.055H155.735C154.071 151.055 152.723 152.501 152.723 154.286V207.082C152.723 208.866 154.071 210.312 155.735 210.312H273.777C275.441 210.312 276.789 208.866 276.789 207.082V154.286C276.789 152.501 275.441 151.055 273.777 151.055Z" fill="#CCCCCC"/>
<path d="M230.853 141.623H198.647C196.205 141.619 193.864 140.577 192.137 138.726C190.41 136.874 189.439 134.363 189.435 131.745V122.876C189.439 120.257 190.41 117.746 192.137 115.895C193.864 114.043 196.205 113.001 198.647 112.997H230.853C233.296 112.997 235.639 114.038 237.367 115.89C239.094 117.743 240.065 120.256 240.065 122.876V131.701C240.07 133.002 239.836 134.292 239.375 135.495C238.915 136.699 238.237 137.793 237.381 138.715C236.525 139.637 235.508 140.368 234.388 140.867C233.268 141.366 232.066 141.623 230.853 141.623ZM198.647 120.251C197.998 120.258 197.378 120.537 196.919 121.027C196.459 121.517 196.196 122.181 196.186 122.876V131.701C196.186 132.409 196.448 133.088 196.914 133.588C197.381 134.088 198.014 134.369 198.674 134.369H230.88C231.54 134.369 232.173 134.088 232.639 133.588C233.106 133.088 233.368 132.409 233.368 131.701V122.876C233.368 122.168 233.106 121.489 232.639 120.989C232.173 120.489 231.54 120.208 230.88 120.208L198.647 120.251Z" fill="#CCCCCC"/>
<path opacity="0.2" d="M273.764 151.055H155.748C155.352 151.053 154.959 151.135 154.591 151.297C154.224 151.458 153.891 151.696 153.61 151.996C153.329 152.296 153.105 152.653 152.953 153.046C152.801 153.439 152.723 153.86 152.723 154.286V171.231L214.178 184.21C214.554 184.298 214.944 184.298 215.321 184.21L276.789 171.231V154.286C276.789 153.86 276.711 153.439 276.559 153.046C276.407 152.653 276.183 152.296 275.902 151.996C275.621 151.696 275.288 151.458 274.921 151.297C274.553 151.135 274.16 151.053 273.764 151.055Z" fill="black"/>
<path d="M276.871 167.582L215.295 180.561C214.912 180.633 214.521 180.633 214.138 180.561L152.562 167.582C151.885 167.439 151.276 167.049 150.837 166.478C150.398 165.908 150.157 165.192 150.155 164.453V132.582C150.155 132.163 150.232 131.749 150.381 131.362C150.53 130.975 150.749 130.624 151.025 130.328C151.301 130.032 151.629 129.797 151.989 129.637C152.35 129.477 152.736 129.395 153.127 129.395H276.333C276.723 129.395 277.109 129.477 277.47 129.637C277.831 129.797 278.158 130.032 278.434 130.328C278.71 130.624 278.929 130.975 279.078 131.362C279.228 131.749 279.305 132.163 279.305 132.582V164.51C279.291 165.245 279.041 165.951 278.598 166.511C278.154 167.071 277.544 167.449 276.871 167.582Z" fill="#CCCCCC"/>
<path d="M221.131 171.922H208.396C206.821 171.922 205.545 173.291 205.545 174.98V183.618C205.545 185.307 206.821 186.675 208.396 186.675H221.131C222.705 186.675 223.981 185.307 223.981 183.618V174.98C223.981 173.291 222.705 171.922 221.131 171.922Z" fill="#CCCCCC"/>
<path opacity="0.4" d="M221.131 171.922H208.396C206.821 171.922 205.545 173.291 205.545 174.98V183.618C205.545 185.307 206.821 186.675 208.396 186.675H221.131C222.705 186.675 223.981 185.307 223.981 183.618V174.98C223.981 173.291 222.705 171.922 221.131 171.922Z" fill="black"/>
<path d="M436.762 183.748C438.308 187.165 439.451 190.396 440.796 193.77C442.141 197.145 443.122 200.505 444.171 203.952C446.297 210.94 447.867 218.109 448.864 225.382C448.999 226.29 449.066 227.271 449.16 228.266L449.295 229.708C449.295 229.968 449.295 230.155 449.295 230.458V231.395C449.34 233.582 449.164 235.768 448.77 237.914C448.103 241.644 447.154 245.309 445.933 248.874C443.636 255.65 440.774 262.191 437.38 268.415L430.549 265.314C432.068 258.738 433.601 252.032 434.758 245.557C435.323 242.455 435.723 239.32 435.955 236.169C436.034 234.88 436.007 233.587 435.874 232.304L435.726 231.395L435.538 230.242C435.39 229.477 435.296 228.713 435.121 227.934C433.78 221.569 432.046 215.305 429.93 209.187C428.908 206.057 427.779 202.942 426.649 199.813C425.519 196.683 424.269 193.54 423.112 190.655L436.762 183.748Z" fill="#7F3E3B"/>
<path d="M430.844 263.397L425.6 268.877L437.043 274.646C437.043 274.646 439.814 269.454 437.904 264.753L430.844 263.397Z" fill="#7F3E3B"/>
<path d="M421.377 277.054L431.032 281.294L437.043 274.588L425.599 268.877L421.377 277.054Z" fill="#7F3E3B"/>
<path opacity="0.2" d="M225.514 271.141C244.543 268.856 262.513 260.571 277.151 247.334C291.79 234.097 302.44 216.502 307.755 196.775C313.07 177.048 312.811 156.073 307.012 136.504C301.212 116.934 290.132 99.6476 275.172 86.8305C260.212 74.0134 242.045 66.2409 222.966 64.4958C203.888 62.7507 184.755 67.1113 167.987 77.0263C151.219 86.9413 137.569 101.965 128.763 120.199C119.957 138.433 116.39 159.057 118.513 179.465C119.923 193.02 123.809 206.145 129.95 218.089C136.091 230.033 144.367 240.563 154.303 249.076C164.24 257.589 175.643 263.92 187.862 267.706C200.08 271.492 212.875 272.659 225.514 271.141Z" fill="#CCCCCC"/>
<path opacity="0.1" d="M155.063 86.1597L302.314 212.288C302.946 210.846 303.537 209.404 304.116 207.962C307.806 198.545 310.163 188.591 311.108 178.427L183.922 69.5176C173.484 73.2505 163.723 78.8798 155.063 86.1597Z" fill="white"/>
<path opacity="0.1" d="M121.094 141.436L259.523 260.051C272.676 252.694 284.077 242.195 292.846 229.363L141.669 99.8022C131.926 111.806 124.887 126.051 121.094 141.436Z" fill="white"/>
<path d="M453.261 284.566C453.084 281.942 452.284 279.41 450.935 277.212C449.955 275.595 448.584 274.294 446.968 273.448L437.783 268.616C431.678 265.372 425.533 262.213 419.387 259.055C413.242 255.897 407.056 252.796 400.897 249.667C394.738 246.538 388.525 243.495 382.299 240.509C369.873 234.472 357.367 228.598 344.78 222.887C338.487 220.002 332.18 217.234 325.819 214.522C323.962 213.738 322.453 212.226 321.596 210.293C320.74 208.36 320.601 206.149 321.207 204.11C329.721 175.323 327.782 144.149 315.779 116.829C303.775 89.509 282.592 68.0592 256.471 56.7733C230.35 45.4875 201.217 45.1984 174.906 55.964C148.594 66.7296 127.045 87.7555 114.572 114.833C102.099 141.91 99.6227 173.04 107.639 201.991C115.655 230.943 133.572 255.579 157.803 270.969C182.034 286.358 210.791 291.365 238.317 284.987C265.843 278.609 290.108 261.317 306.253 236.572C307.396 234.814 309.12 233.586 311.075 233.139C313.03 232.692 315.07 233.058 316.783 234.164C322.664 237.914 328.572 241.601 334.506 245.225C346.367 252.474 358.317 259.541 370.357 266.424C376.368 269.914 382.46 273.275 388.444 276.692C394.429 280.11 400.547 283.442 406.639 286.787C412.731 290.133 418.742 293.407 424.914 296.637L434.072 301.511C435.681 302.379 437.48 302.758 439.276 302.607C441.72 302.422 444.077 301.562 446.121 300.112C448.557 298.508 450.521 296.196 451.784 293.445C453.048 290.694 453.56 287.616 453.261 284.566ZM175.745 252.667C160.113 244.394 147.119 231.336 138.407 215.144C129.695 198.951 125.656 180.352 126.801 161.698C127.946 143.043 134.224 125.173 144.841 110.345C155.457 95.5172 169.935 84.3987 186.444 78.3957C202.953 72.3927 220.752 71.7747 237.588 76.6199C254.425 81.4651 269.543 91.5559 281.032 105.616C292.521 119.676 299.863 137.074 302.131 155.61C304.399 174.145 301.491 192.986 293.774 209.749C288.652 220.878 281.536 230.817 272.833 238.997C264.129 247.177 254.009 253.439 243.049 257.424C232.088 261.41 220.504 263.041 208.956 262.224C197.408 261.408 186.123 258.16 175.745 252.667Z" fill="#CCCCCC"/>
<path d="M386.051 139.172C386.051 140.023 385.634 140.715 385.109 140.715C384.585 140.715 384.168 140.023 384.168 139.172C384.168 138.321 384.585 137.614 385.109 137.614C385.634 137.614 386.051 138.306 386.051 139.172Z" fill="#263238"/>
<path d="M385.701 140.715C384.756 143.327 383.48 145.788 381.909 148.026C382.453 148.444 383.076 148.728 383.733 148.86C384.391 148.992 385.067 148.969 385.715 148.791L385.701 140.715Z" fill="#630F0F"/>
<path d="M388.874 134.413C388.972 134.41 389.067 134.375 389.145 134.312C389.223 134.249 389.28 134.161 389.31 134.061C389.339 133.961 389.339 133.854 389.309 133.754C389.28 133.655 389.222 133.567 389.143 133.504C388.549 133.027 387.858 132.707 387.126 132.572C386.395 132.436 385.643 132.489 384.934 132.726C384.871 132.744 384.812 132.777 384.761 132.821C384.71 132.866 384.668 132.922 384.638 132.985C384.608 133.048 384.591 133.117 384.588 133.187C384.585 133.258 384.595 133.328 384.619 133.394C384.642 133.46 384.679 133.52 384.725 133.569C384.772 133.619 384.827 133.658 384.889 133.684C384.95 133.709 385.016 133.72 385.082 133.717C385.148 133.713 385.212 133.695 385.271 133.663C385.835 133.483 386.431 133.448 387.01 133.561C387.59 133.673 388.136 133.931 388.606 134.312C388.681 134.378 388.777 134.414 388.874 134.413Z" fill="#263238"/>
<path d="M413.255 145.603C411.829 153.362 410.417 167.567 415.473 172.729C415.473 172.729 413.497 180.589 400.076 180.589C385.284 180.589 393.016 172.729 393.016 172.729C401.085 170.667 400.869 164.25 399.457 158.308L413.255 145.603Z" fill="#7F3E3B"/>
<path d="M418.069 167.87C419.185 168.26 417.733 175.384 417.733 175.384C417.733 175.384 415.891 180.359 393.003 178.629C391.241 178.485 391.914 171.649 393.595 170.654C399.014 167.481 414.465 166.601 418.069 167.87Z" fill="#263238"/>
<path d="M464.557 465.828C465.794 465.698 467.596 463.261 468.107 462.367C468.13 462.328 468.142 462.283 468.142 462.237C468.142 462.191 468.13 462.146 468.107 462.107C468.085 462.065 468.051 462.03 468.01 462.01C467.969 461.989 467.923 461.983 467.879 461.992C467.744 461.992 464.49 462.655 463.696 464.011C463.613 464.153 463.558 464.312 463.534 464.479C463.511 464.645 463.521 464.815 463.562 464.977C463.737 465.612 464.073 465.785 464.342 465.828H464.557ZM467.394 462.612C466.52 463.91 465.082 465.424 464.396 465.323C464.328 465.323 464.127 465.323 464.006 464.833C463.979 464.739 463.973 464.639 463.987 464.542C464.001 464.445 464.035 464.352 464.086 464.27C465.013 463.381 466.164 462.804 467.394 462.612Z" fill="#CCCCCC"/>
<path d="M467.26 462.612C467.501 462.59 467.739 462.547 467.973 462.482C468.013 462.469 468.048 462.444 468.077 462.411C468.105 462.378 468.125 462.338 468.134 462.295C468.142 462.25 468.139 462.204 468.125 462.161C468.11 462.118 468.086 462.079 468.054 462.05C467.973 461.963 465.794 459.973 464.315 460.132C464.137 460.144 463.964 460.197 463.806 460.286C463.649 460.376 463.51 460.5 463.401 460.651C463.274 460.782 463.195 460.956 463.178 461.144C463.161 461.332 463.206 461.52 463.307 461.675C463.791 462.497 465.915 462.756 467.26 462.612ZM467.368 462.107C466.023 462.28 464.06 461.992 463.683 461.401C463.683 461.401 463.576 461.213 463.764 460.954C463.839 460.858 463.932 460.78 464.036 460.723C464.14 460.666 464.253 460.632 464.369 460.622C465.484 460.787 466.528 461.304 467.368 462.107Z" fill="#CCCCCC"/>
<path d="M372.105 503.756C373.124 503.752 374.141 503.655 375.144 503.468C375.189 503.454 375.23 503.429 375.263 503.393C375.296 503.358 375.32 503.314 375.332 503.266C375.341 503.214 375.333 503.161 375.312 503.115C375.29 503.068 375.255 503.03 375.211 503.006C375.064 502.905 371.621 500.8 369.967 501.275C369.657 501.36 369.391 501.573 369.227 501.867C369.122 502.027 369.065 502.219 369.065 502.415C369.065 502.611 369.122 502.802 369.227 502.963C369.658 503.597 370.841 503.756 372.105 503.756ZM374.391 503.093C372.549 503.367 370.048 503.352 369.59 502.674C369.523 502.588 369.469 502.429 369.59 502.112C369.64 502.023 369.706 501.946 369.785 501.887C369.863 501.827 369.953 501.786 370.048 501.766C371.11 501.463 373.181 502.429 374.391 503.093Z" fill="#CCCCCC"/>
<path d="M375.037 503.468C375.085 503.482 375.137 503.482 375.185 503.468C375.216 503.439 375.24 503.404 375.257 503.364C375.273 503.324 375.281 503.28 375.279 503.237C375.279 503.121 374.997 500.266 373.746 499.156C373.561 498.99 373.346 498.866 373.115 498.792C372.884 498.717 372.641 498.694 372.401 498.723C371.756 498.795 371.581 499.141 371.527 499.43C371.352 500.627 373.719 502.92 374.903 503.496L375.037 503.468ZM372.63 499.141C372.93 499.15 373.219 499.267 373.45 499.473C374.197 500.388 374.666 501.524 374.795 502.732C373.571 501.953 371.971 500.151 372.105 499.43C372.105 499.43 372.105 499.199 372.563 499.156L372.63 499.141Z" fill="#CCCCCC"/>
<path d="M385.956 503.222H376.086L375.091 478.677H384.975L385.956 503.222Z" fill="#7F3E3B"/>
<path d="M476.741 454.608L469.035 461.227L449.429 446.633L457.148 440.014L476.741 454.608Z" fill="#7F3E3B"/>
<path d="M467.623 460.809L475.504 452.431C475.645 452.285 475.828 452.194 476.023 452.173C476.218 452.152 476.414 452.202 476.579 452.315L484.15 457.536C484.334 457.663 484.488 457.834 484.601 458.034C484.714 458.235 484.783 458.461 484.802 458.694C484.822 458.928 484.791 459.163 484.713 459.382C484.635 459.601 484.512 459.798 484.352 459.958C481.555 462.843 480.062 464.083 476.593 467.76C474.468 470.039 469.264 476.817 466.319 479.946C463.374 483.076 460.093 480.365 461.048 478.793C465.283 471.784 466.722 466.001 466.911 462.482C466.951 461.85 467.204 461.256 467.623 460.809Z" fill="#263238"/>
<path d="M376.14 501.997H386.898C387.093 501.995 387.282 502.067 387.434 502.198C387.586 502.329 387.691 502.513 387.731 502.718L389.681 512.135C389.73 512.361 389.731 512.596 389.682 512.823C389.634 513.049 389.538 513.261 389.402 513.442C389.266 513.622 389.093 513.767 388.897 513.866C388.7 513.964 388.486 514.013 388.269 514.009C384.369 514.009 378.748 513.707 373.854 513.707C368.138 513.707 363.203 514.038 356.493 514.038C352.459 514.038 351.315 509.64 353.01 509.236C360.742 507.433 367.049 507.231 373.719 502.819C374.439 502.308 375.277 502.023 376.14 501.997Z" fill="#263238"/>
<path d="M434.945 175.903C443.512 180.229 447.048 209.879 447.048 209.879L427.348 218.171C424.29 210.143 421.813 201.875 419.938 193.439C417.181 180.056 426.137 171.403 434.945 175.903Z" fill="#CCCCCC"/>
<path opacity="0.3" d="M434.945 175.903C443.512 180.229 447.048 209.879 447.048 209.879L427.348 218.171C424.29 210.143 421.813 201.875 419.938 193.439C417.181 180.056 426.137 171.403 434.945 175.903Z" fill="white"/>
<path opacity="0.2" d="M422.184 184.599C421.513 184.25 420.81 183.974 420.086 183.777C419.3 186.939 419.273 190.263 420.006 193.44C421.872 201.876 424.345 210.145 427.402 218.172L433.897 215.446C432.7 207.702 429.029 188.118 422.184 184.599Z" fill="black"/>
<path d="M377.821 175.672C377.821 175.672 367.305 188.406 377.229 267.247H430.078C430.441 258.594 425.344 216.109 433.171 175.124C427.326 173.919 421.415 173.119 415.474 172.73C407.994 172.268 400.496 172.268 393.017 172.73C387.888 173.284 382.807 174.268 377.821 175.672Z" fill="#CCCCCC"/>
<path opacity="0.3" d="M377.821 175.672C377.821 175.672 367.305 188.406 377.229 267.247H430.078C430.441 258.594 425.344 216.109 433.171 175.124C427.326 173.919 421.415 173.119 415.474 172.73C407.994 172.268 400.496 172.268 393.017 172.73C387.888 173.284 382.807 174.268 377.821 175.672Z" fill="white"/>
<path opacity="0.2" d="M388.485 192.574C386.091 184.873 380.335 182.407 374.472 186.978C373.289 194.448 372.455 206.49 373.41 225.584L383.724 225.483C383.724 225.483 392.021 204.039 388.485 192.574Z" fill="black"/>
<path d="M386.548 189.416C386.118 193.281 385.526 196.785 384.868 200.434C384.209 204.082 383.442 207.644 382.568 211.235C380.842 218.574 378.492 225.728 375.548 232.607C374.782 234.381 373.894 236.126 372.953 237.871C372.469 238.751 371.985 239.631 371.433 240.496C370.719 241.698 369.875 242.807 368.919 243.798C367.063 245.644 364.863 247.045 362.464 247.908C360.516 248.64 358.501 249.148 356.453 249.423C352.798 249.909 349.104 249.957 345.439 249.567C343.646 249.413 341.898 249.168 340.195 248.831C338.447 248.5 336.793 248.154 334.991 247.649L335.865 239.746C342.003 239.47 348.096 238.503 354.046 236.862C355.256 236.478 356.431 235.976 357.556 235.362C358.294 234.999 358.94 234.45 359.438 233.761C359.331 233.862 360.312 232.117 360.891 230.877C361.469 229.637 362.114 227.993 362.666 226.551C363.795 223.58 364.763 220.436 365.651 217.22C366.539 214.004 367.319 210.73 368.045 207.414C368.771 204.097 369.389 200.751 370.062 197.319C370.734 193.886 371.218 190.483 371.702 187.296L386.548 189.416Z" fill="#7F3E3B"/>
<path d="M391.027 183.445C393.81 193.121 382.514 221.964 382.514 221.964L358.726 215.546C360.182 206.43 362.633 197.528 366.028 189.026C373.693 171.028 387.678 171.778 391.027 183.445Z" fill="#CCCCCC"/>
<path opacity="0.3" d="M391.027 183.445C393.81 193.121 382.514 221.964 382.514 221.964L358.726 215.546C360.182 206.43 362.633 197.528 366.028 189.026C373.693 171.028 387.678 171.778 391.027 183.445Z" fill="white"/>
<path d="M336.201 239.79L325.012 239.487L330.391 251.961C330.391 251.961 334.936 252.61 338.675 246.02L342.615 240.987L338.083 240.006C337.463 239.876 336.833 239.804 336.201 239.79Z" fill="#7F3E3B"/>
<path d="M317.953 241.809L324.367 252.149L330.405 251.961L325.013 239.487L317.953 241.809Z" fill="#7F3E3B"/>
<path opacity="0.2" d="M375.104 478.691L375.602 491.339H385.485L384.975 478.691H375.104Z" fill="black"/>
<path opacity="0.2" d="M457.148 440.014L449.429 446.633L459.541 454.161L467.26 447.542L457.148 440.014Z" fill="black"/>
<path d="M412.69 137.297C412.098 147.796 412.26 153.968 407.311 159.362C399.888 167.466 387.799 162.678 385.459 152.151C383.348 142.719 384.679 127.145 394.254 122.948C396.365 122.011 398.665 121.671 400.934 121.959C403.203 122.247 405.365 123.154 407.214 124.593C409.063 126.032 410.538 127.955 411.496 130.179C412.455 132.404 412.866 134.854 412.69 137.297Z" fill="#7F3E3B"/>
<path d="M420.597 127.549C420.597 127.549 425.748 129.193 424.134 135.495C421.7 145.07 415.971 156.088 408.575 156.78C399.364 157.66 395.208 147.464 393.998 136.922C388.485 132.87 384.397 129.077 385.715 124.866C387.732 118.377 395.047 112.781 406.693 114.223C418.338 115.665 424.134 123.741 420.597 127.549Z" fill="#263238"/>
<path d="M399.606 139.086C399.427 141.69 398.453 144.158 396.835 146.109C394.684 148.647 392.425 147.061 392.048 143.975C391.712 141.177 392.411 136.49 395.047 135.091C397.683 133.692 399.78 135.942 399.606 139.086Z" fill="#7F3E3B"/>
<path d="M395.975 267.247C395.975 267.247 392.64 338.661 399.135 368.917C409.423 416.824 454.647 455.214 454.647 455.214L469.17 442.739C469.17 442.739 431.961 413.046 428.612 373.157C425.613 337.334 430.051 296.191 430.051 267.247H395.975Z" fill="#CCCCCC"/>
<path opacity="0.2" d="M395.975 267.247C395.975 267.247 392.64 338.661 399.135 368.917C409.423 416.824 454.647 455.214 454.647 455.214L469.17 442.739C469.17 442.739 431.961 413.046 428.612 373.157C425.613 337.334 430.051 296.191 430.051 267.247H395.975Z" fill="black"/>
<path opacity="0.2" d="M400.937 288.403C399.592 285.62 396.97 293.912 395.141 304.555C395.141 319.236 395.383 335.936 396.58 350.083C405.711 331.984 403.774 294.172 400.937 288.403Z" fill="black"/>
<path d="M448.057 452.143L453.571 456.728L470.34 442.149L465.31 437.26L448.057 452.143Z" fill="black"/>
<path opacity="0.4" d="M448.057 452.143L453.571 456.728L470.34 442.149L465.31 437.26L448.057 452.143Z" fill="#FAFAFA"/>
<path d="M377.229 267.247C377.229 267.247 362.356 334.883 361.307 367.186C360.137 403.427 371.917 488.887 371.917 488.887H388.66C388.66 488.887 390.717 402.764 391.47 369.753C392.277 333.772 411.964 267.247 411.964 267.247H377.229Z" fill="#CCCCCC"/>
<path opacity="0.2" d="M377.229 267.247C377.229 267.247 362.356 334.883 361.307 367.186C360.137 403.427 371.917 488.887 371.917 488.887H388.66C388.66 488.887 390.717 402.764 391.47 369.753C392.277 333.772 411.964 267.247 411.964 267.247H377.229Z" fill="black"/>
<path d="M368.704 481.735C368.623 481.735 369.645 489.191 369.645 489.191H390.005L390.556 482.542L368.704 481.735Z" fill="black"/>
<path opacity="0.4" d="M368.704 481.735C368.623 481.735 369.645 489.191 369.645 489.191H390.005L390.556 482.542L368.704 481.735Z" fill="#FAFAFA"/>
</svg>
