<svg width="30" height="35" viewBox="0 0 30 35" fill="none" xmlns="http://www.w3.org/2000/svg">
<mask id="path-1-inside-1_7_1570" fill="white">
<path d="M0.75 2.92308C0.75 1.30871 2.05871 0 3.67308 0H26.3269C27.9413 0 29.25 1.30871 29.25 2.92308V25.5769C29.25 27.1913 27.9413 28.5 26.3269 28.5H3.67308C2.05871 28.5 0.75 27.1913 0.75 25.5769V2.92308Z"/>
</mask>
<path d="M0.75 2.92308C0.75 1.30871 2.05871 0 3.67308 0H26.3269C27.9413 0 29.25 1.30871 29.25 2.92308V25.5769C29.25 27.1913 27.9413 28.5 26.3269 28.5H3.67308C2.05871 28.5 0.75 27.1913 0.75 25.5769V2.92308Z" stroke="white" stroke-width="14.7097" mask="url(#path-1-inside-1_7_1570)"/>
<rect width="7.96774" height="4.90323" transform="translate(21.2822 30.0322)" fill="white"/>
</svg>
